<svg xmlns="http://www.w3.org/2000/svg" xmlns:xlink="http://www.w3.org/1999/xlink" width="229" height="68" viewBox="0 0 229 68"><defs><filter id="Rectangle_1022" width="229" height="68" x="0" y="0" filterUnits="userSpaceOnUse"><feOffset dy="3" input="SourceAlpha"/><feGaussianBlur result="blur" stdDeviation="3"/><feFlood flood-opacity=".251"/><feComposite in2="blur" operator="in"/><feComposite in="SourceGraphic"/></filter></defs><g id="Group_119" data-name="Group 119"><g filter="url(#Rectangle_1022)" transform="translate(-265 -65) matrix(1, 0, 0, 1, 265, 65)"><g id="Rectangle_1022-2" fill="#56c5bc" stroke="#38807a" stroke-width="1" data-name="Rectangle 1022"><path stroke="none" d="M0,0H203a6,6,0,0,1,6,6V42a6,6,0,0,1-6,6H0a0,0,0,0,1,0,0V0A0,0,0,0,1,0,0Z" transform="translate(10 7)"/><path fill="none" d="M0-.5H203A6.5,6.5,0,0,1,209.5,6V42a6.5,6.5,0,0,1-6.5,6.5H0A.5.5,0,0,1-.5,48V0A.5.5,0,0,1,0-.5Z" transform="translate(10 7)"/></g></g></g></svg>