<svg xmlns="http://www.w3.org/2000/svg" xmlns:xlink="http://www.w3.org/1999/xlink" style="enable-background:new 0 0 512 512" width="512" height="512" version="1.1" xml:space="preserve"><rect id="backgroundrect" width="100%" height="100%" x="0" y="0" fill="none" stroke="none"/><g class="currentLayer"><title>Layer 1</title><g id="svg_1" fill="#fff" fill-opacity="1"><g id="svg_2" fill="#fff" fill-opacity="1"><path id="svg_3" fill="#fff" fill-opacity="1" d="M492,236H20c-11.046,0-20,8.954-20,20c0,11.046,8.954,20,20,20h472c11.046,0,20-8.954,20-20S503.046,236,492,236z"/></g></g><g id="svg_4" fill="#fff" fill-opacity="1"><g id="svg_5" fill="#fff" fill-opacity="1"><path id="svg_6" fill="#fff" fill-opacity="1" d="M492,76H20C8.954,76,0,84.954,0,96s8.954,20,20,20h472c11.046,0,20-8.954,20-20S503.046,76,492,76z"/></g></g><g id="svg_7" fill="#fff" fill-opacity="1"><g id="svg_8" fill="#fff" fill-opacity="1"><path id="svg_9" fill="#fff" fill-opacity="1" d="M492,396H20c-11.046,0-20,8.954-20,20c0,11.046,8.954,20,20,20h472c11.046,0,20-8.954,20-20 C512,404.954,503.046,396,492,396z"/></g></g></g></svg>